<svg xmlns="http://www.w3.org/2000/svg" viewBox="0 0 512 512">
  <defs>
    <linearGradient id="bg" x1="0%" y1="0%" x2="100%" y2="100%">
      <stop offset="0%" style="stop-color:#9333EA"/>
      <stop offset="100%" style="stop-color:#7C3AED"/>
    </linearGradient>
  </defs>
  <!-- Background -->
  <rect width="512" height="512" rx="115" fill="url(#bg)"/>
  <!-- Heart with sparkles -->
  <path d="M256 400 C180 340 120 280 120 210 C120 160 160 120 210 120 C240 120 256 140 256 140 C256 140 272 120 302 120 C352 120 392 160 392 210 C392 280 332 340 256 400Z" fill="#FFFFFF"/>
  <!-- Sparkles -->
  <circle cx="160" cy="160" r="12" fill="#FDE68A"/>
  <circle cx="352" cy="160" r="8" fill="#FDE68A"/>
  <circle cx="140" cy="280" r="6" fill="#FDE68A"/>
  <circle cx="372" cy="260" r="10" fill="#FDE68A"/>
  <circle cx="256" cy="100" r="8" fill="#FDE68A"/>
  <!-- Star sparkles -->
  <path d="M180 130 L184 140 L194 140 L186 147 L189 157 L180 151 L171 157 L174 147 L166 140 L176 140Z" fill="#FDE68A"/>
  <path d="M340 130 L343 138 L351 138 L345 143 L347 151 L340 147 L333 151 L335 143 L329 138 L337 138Z" fill="#FDE68A"/>
</svg>