<svg xmlns="http://www.w3.org/2000/svg" viewBox="0 0 512 512">
  <defs>
    <linearGradient id="bg" x1="0%" y1="0%" x2="100%" y2="100%">
      <stop offset="0%" style="stop-color:#312E81"/>
      <stop offset="100%" style="stop-color:#1E1B4B"/>
    </linearGradient>
  </defs>
  <!-- Background -->
  <rect width="512" height="512" rx="115" fill="url(#bg)"/>
  <!-- Moon crescent -->
  <circle cx="256" cy="256" r="120" fill="#E0E7FF"/>
  <circle cx="300" cy="220" r="90" fill="url(#bg)"/>
  <!-- Stars -->
  <circle cx="380" cy="140" r="8" fill="#FDE68A"/>
  <circle cx="420" cy="200" r="5" fill="#FDE68A"/>
  <circle cx="140" cy="180" r="6" fill="#FDE68A"/>
  <circle cx="100" cy="300" r="4" fill="#FDE68A"/>
  <circle cx="160" cy="380" r="7" fill="#FDE68A"/>
  <circle cx="400" cy="350" r="5" fill="#FDE68A"/>
  <circle cx="350" cy="400" r="4" fill="#FDE68A"/>
  <!-- Big star -->
  <path d="M400 100 L406 118 L425 118 L410 130 L416 148 L400 137 L384 148 L390 130 L375 118 L394 118Z" fill="#FDE68A"/>
  <!-- Constellation lines -->
  <line x1="140" y1="180" x2="160" y2="380" stroke="#6366F1" stroke-width="2" opacity="0.5"/>
  <line x1="160" y1="380" x2="100" y2="300" stroke="#6366F1" stroke-width="2" opacity="0.5"/>
</svg>