<svg xmlns="http://www.w3.org/2000/svg" viewBox="0 0 512 512">
  <defs>
    <linearGradient id="bg" x1="0%" y1="0%" x2="100%" y2="100%">
      <stop offset="0%" style="stop-color:#3B82F6"/>
      <stop offset="100%" style="stop-color:#2563EB"/>
    </linearGradient>
  </defs>
  <!-- Background -->
  <rect width="512" height="512" rx="115" fill="url(#bg)"/>
  <!-- Scale balance -->
  <rect x="246" y="140" width="20" height="200" rx="6" fill="#FFFFFF"/>
  <rect x="166" y="330" width="180" height="20" rx="6" fill="#FFFFFF"/>
  <!-- Balance beam -->
  <rect x="130" y="180" width="252" height="16" rx="8" fill="#FFFFFF"/>
  <!-- Left pan -->
  <ellipse cx="160" cy="280" rx="60" ry="20" fill="#DBEAFE"/>
  <path d="M130 195 L100 260 L160 280 L220 260 L190 195" fill="none" stroke="#FFFFFF" stroke-width="6"/>
  <text x="160" y="250" font-family="Arial, sans-serif" font-size="32" font-weight="bold" fill="#3B82F6" text-anchor="middle">kg</text>
  <!-- Right pan -->
  <ellipse cx="352" cy="260" rx="60" ry="20" fill="#DBEAFE"/>
  <path d="M322 195 L292 240 L352 260 L412 240 L382 195" fill="none" stroke="#FFFFFF" stroke-width="6"/>
  <text x="352" y="230" font-family="Arial, sans-serif" font-size="32" font-weight="bold" fill="#3B82F6" text-anchor="middle">lb</text>
  <!-- Arrows -->
  <path d="M230 140 L256 110 L282 140" fill="none" stroke="#93C5FD" stroke-width="8" stroke-linecap="round" stroke-linejoin="round"/>
</svg>