<svg xmlns="http://www.w3.org/2000/svg" viewBox="0 0 512 512">
  <defs>
    <linearGradient id="bg" x1="0%" y1="0%" x2="100%" y2="100%">
      <stop offset="0%" style="stop-color:#DC2626"/>
      <stop offset="100%" style="stop-color:#B91C1C"/>
    </linearGradient>
  </defs>
  <!-- Background -->
  <rect width="512" height="512" rx="115" fill="url(#bg)"/>
  <!-- Hourglass -->
  <path d="M176 120 L336 120 L336 140 L296 200 L296 240 C296 256 310 270 310 290 L310 340 L336 400 L336 420 L176 420 L176 400 L202 340 L202 290 C202 270 216 256 216 240 L216 200 L176 140 L176 120Z" fill="#FFFFFF"/>
  <!-- Sand top -->
  <path d="M200 140 L312 140 L280 190 L232 190 Z" fill="#FDE68A"/>
  <!-- Sand flowing -->
  <rect x="250" y="230" width="12" height="50" fill="#FDE68A"/>
  <!-- Sand bottom -->
  <path d="M220 380 L292 380 L320 400 L192 400 Z" fill="#FDE68A"/>
  <!-- Time numbers -->
  <text x="256" y="90" font-family="Arial, sans-serif" font-size="36" font-weight="bold" fill="#FFFFFF" text-anchor="middle">3:45</text>
</svg>