<svg xmlns="http://www.w3.org/2000/svg" viewBox="0 0 512 512">
  <defs>
    <linearGradient id="bg" x1="0%" y1="0%" x2="100%" y2="100%">
      <stop offset="0%" style="stop-color:#DB2777"/>
      <stop offset="100%" style="stop-color:#BE185D"/>
    </linearGradient>
  </defs>
  <!-- Background -->
  <rect width="512" height="512" rx="115" fill="url(#bg)"/>
  <!-- Hanger -->
  <circle cx="256" cy="120" r="20" fill="none" stroke="#FFFFFF" stroke-width="10"/>
  <path d="M256 140 L256 160 L140 220 L140 230 L372 230 L372 220 L256 160" fill="none" stroke="#FFFFFF" stroke-width="10" stroke-linecap="round" stroke-linejoin="round"/>
  <!-- Dress/shirt shape -->
  <path d="M180 230 L180 400 L332 400 L332 230" fill="#FFFFFF"/>
  <!-- Color palette swatches -->
  <rect x="195" y="260" width="40" height="40" rx="8" fill="#F472B6"/>
  <rect x="245" y="260" width="40" height="40" rx="8" fill="#A78BFA"/>
  <rect x="295" y="260" width="40" height="40" rx="8" fill="#34D399"/>
  <rect x="195" y="310" width="40" height="40" rx="8" fill="#60A5FA"/>
  <rect x="245" y="310" width="40" height="40" rx="8" fill="#FBBF24"/>
  <rect x="295" y="310" width="40" height="40" rx="8" fill="#F87171"/>
</svg>