<svg xmlns="http://www.w3.org/2000/svg" viewBox="0 0 512 512">
  <defs>
    <linearGradient id="bg" x1="0%" y1="0%" x2="100%" y2="100%">
      <stop offset="0%" style="stop-color:#65A30D"/>
      <stop offset="100%" style="stop-color:#4D7C0F"/>
    </linearGradient>
  </defs>
  <!-- Background -->
  <rect width="512" height="512" rx="115" fill="url(#bg)"/>
  <!-- Stairs -->
  <rect x="100" y="360" width="100" height="60" rx="8" fill="#FFFFFF"/>
  <rect x="180" y="300" width="100" height="120" rx="8" fill="#FFFFFF"/>
  <rect x="260" y="240" width="100" height="180" rx="8" fill="#FFFFFF"/>
  <rect x="340" y="180" width="100" height="240" rx="8" fill="#FFFFFF"/>
  <!-- Footprint on first step -->
  <ellipse cx="150" cy="340" rx="25" ry="12" fill="#65A30D" opacity="0.6"/>
  <ellipse cx="150" cy="365" rx="15" ry="8" fill="#65A30D" opacity="0.6"/>
  <!-- Arrow pointing up -->
  <path d="M420 100 L420 160 M400 130 L420 100 L440 130" fill="none" stroke="#FFFFFF" stroke-width="12" stroke-linecap="round" stroke-linejoin="round"/>
  <!-- Star at top -->
  <path d="M420 70 L425 85 L440 85 L428 95 L433 110 L420 100 L407 110 L412 95 L400 85 L415 85Z" fill="#FDE68A"/>
</svg>