<svg xmlns="http://www.w3.org/2000/svg" viewBox="0 0 512 512">
  <defs>
    <linearGradient id="bg" x1="0%" y1="0%" x2="100%" y2="100%">
      <stop offset="0%" style="stop-color:#6366F1"/>
      <stop offset="100%" style="stop-color:#4F46E5"/>
    </linearGradient>
  </defs>
  <!-- Background -->
  <rect width="512" height="512" rx="115" fill="url(#bg)"/>
  <!-- Large quotation marks -->
  <!-- Left quote -->
  <path d="M120 180 C120 140 160 120 200 120 C200 160 180 200 140 240 L140 280 C180 280 220 300 220 360 C220 400 180 420 140 420 C100 420 80 380 80 340 C80 280 100 220 120 180 Z" fill="#FFFFFF"/>
  <!-- Right quote -->
  <path d="M292 180 C292 140 332 120 372 120 C372 160 352 200 312 240 L312 280 C352 280 392 300 392 360 C392 400 352 420 312 420 C272 420 252 380 252 340 C252 280 272 220 292 180 Z" fill="#FFFFFF"/>
  <!-- Sparkles -->
  <circle cx="430" cy="140" r="10" fill="#FDE68A"/>
  <circle cx="80" cy="100" r="8" fill="#FDE68A"/>
  <circle cx="450" cy="400" r="6" fill="#FDE68A"/>
  <!-- Small star -->
  <path d="M100 400 L105 415 L120 415 L108 425 L113 440 L100 430 L87 440 L92 425 L80 415 L95 415Z" fill="#FDE68A"/>
</svg>