<svg xmlns="http://www.w3.org/2000/svg" viewBox="0 0 512 512">
  <defs>
    <linearGradient id="bg" x1="0%" y1="0%" x2="100%" y2="100%">
      <stop offset="0%" style="stop-color:#0EA5E9"/>
      <stop offset="100%" style="stop-color:#0284C7"/>
    </linearGradient>
    <linearGradient id="drop" x1="0%" y1="0%" x2="100%" y2="100%">
      <stop offset="0%" style="stop-color:#FFFFFF"/>
      <stop offset="100%" style="stop-color:#E0F2FE"/>
    </linearGradient>
  </defs>
  <!-- Background -->
  <rect width="512" height="512" rx="115" fill="url(#bg)"/>
  <!-- Water drop shape -->
  <path d="M256 80 C256 80 380 220 380 320 C380 400 326 440 256 440 C186 440 132 400 132 320 C132 220 256 80 256 80Z" fill="url(#drop)"/>
  <!-- Highlight on drop -->
  <ellipse cx="200" cy="280" rx="30" ry="50" fill="#FFFFFF" opacity="0.6"/>
  <!-- Wave lines inside -->
  <path d="M160 350 Q200 330 256 350 Q312 370 352 350" fill="none" stroke="#0EA5E9" stroke-width="8" stroke-linecap="round" opacity="0.4"/>
  <path d="M170 380 Q210 360 256 380 Q302 400 342 380" fill="none" stroke="#0EA5E9" stroke-width="8" stroke-linecap="round" opacity="0.3"/>
  <!-- Small drops around -->
  <path d="M100 200 C100 200 130 240 130 270 C130 295 116 305 100 305 C84 305 70 295 70 270 C70 240 100 200 100 200Z" fill="#FFFFFF" opacity="0.5"/>
  <path d="M412 180 C412 180 432 210 432 230 C432 250 422 258 412 258 C402 258 392 250 392 230 C392 210 412 180 412 180Z" fill="#FFFFFF" opacity="0.5"/>
</svg>