<svg xmlns="http://www.w3.org/2000/svg" viewBox="0 0 512 512">
  <defs>
    <linearGradient id="bg" x1="0%" y1="0%" x2="100%" y2="100%">
      <stop offset="0%" style="stop-color:#16A34A"/>
      <stop offset="100%" style="stop-color:#15803D"/>
    </linearGradient>
    <linearGradient id="flame" x1="0%" y1="100%" x2="0%" y2="0%">
      <stop offset="0%" style="stop-color:#F59E0B"/>
      <stop offset="100%" style="stop-color:#EF4444"/>
    </linearGradient>
  </defs>
  <!-- Background -->
  <rect width="512" height="512" rx="115" fill="url(#bg)"/>
  <!-- Flame -->
  <path d="M256 120 C320 180 350 240 350 300 C350 360 310 400 256 400 C202 400 162 360 162 300 C162 240 192 180 256 120Z" fill="url(#flame)"/>
  <!-- Inner flame -->
  <path d="M256 200 C290 240 310 280 310 320 C310 360 286 380 256 380 C226 380 202 360 202 320 C202 280 222 240 256 200Z" fill="#FDE68A"/>
  <!-- Calorie text hint -->
  <text x="256" y="340" font-family="Arial, sans-serif" font-size="48" font-weight="bold" fill="#EA580C" text-anchor="middle">cal</text>
</svg>