<svg xmlns="http://www.w3.org/2000/svg" viewBox="0 0 512 512">
  <defs>
    <linearGradient id="bg" x1="0%" y1="0%" x2="100%" y2="100%">
      <stop offset="0%" style="stop-color:#DC2626"/>
      <stop offset="100%" style="stop-color:#B91C1C"/>
    </linearGradient>
  </defs>
  <!-- Background -->
  <rect width="512" height="512" rx="115" fill="url(#bg)"/>
  <!-- Dumbbell -->
  <!-- Left weight -->
  <rect x="100" y="200" width="60" height="112" rx="12" fill="#FFFFFF"/>
  <rect x="85" y="220" width="90" height="72" rx="8" fill="#FFFFFF"/>
  <!-- Bar -->
  <rect x="160" y="240" width="192" height="32" rx="8" fill="#FFFFFF"/>
  <!-- Right weight -->
  <rect x="352" y="200" width="60" height="112" rx="12" fill="#FFFFFF"/>
  <rect x="337" y="220" width="90" height="72" rx="8" fill="#FFFFFF"/>
  <!-- AI sparkles -->
  <circle cx="140" cy="140" r="8" fill="#FDE68A"/>
  <circle cx="372" cy="140" r="10" fill="#FDE68A"/>
  <circle cx="420" cy="180" r="6" fill="#FDE68A"/>
  <circle cx="92" cy="170" r="6" fill="#FDE68A"/>
  <!-- AI star -->
  <path d="M256 100 L262 120 L282 120 L266 133 L272 153 L256 141 L240 153 L246 133 L230 120 L250 120Z" fill="#FDE68A"/>
  <!-- AI text -->
  <text x="256" y="400" font-family="Arial, sans-serif" font-size="48" font-weight="bold" fill="#FFFFFF" text-anchor="middle">AI</text>
</svg>