<svg xmlns="http://www.w3.org/2000/svg" viewBox="0 0 512 512">
  <defs>
    <linearGradient id="bg" x1="0%" y1="0%" x2="100%" y2="100%">
      <stop offset="0%" style="stop-color:#22C55E"/>
      <stop offset="100%" style="stop-color:#16A34A"/>
    </linearGradient>
  </defs>
  <!-- Background -->
  <rect width="512" height="512" rx="115" fill="url(#bg)"/>
  <!-- Calendar base -->
  <rect x="100" y="140" width="312" height="280" rx="20" fill="#FFFFFF"/>
  <!-- Calendar header -->
  <rect x="100" y="140" width="312" height="70" rx="20" fill="#DCFCE7"/>
  <rect x="100" y="180" width="312" height="30" fill="#DCFCE7"/>
  <!-- Calendar holes -->
  <rect x="160" y="120" width="16" height="50" rx="8" fill="#16A34A"/>
  <rect x="256" y="120" width="16" height="50" rx="8" fill="#16A34A"/>
  <rect x="336" y="120" width="16" height="50" rx="8" fill="#16A34A"/>
  <!-- Week labels -->
  <text x="140" y="175" font-family="Arial, sans-serif" font-size="20" font-weight="bold" fill="#16A34A">M</text>
  <text x="185" y="175" font-family="Arial, sans-serif" font-size="20" font-weight="bold" fill="#16A34A">T</text>
  <text x="230" y="175" font-family="Arial, sans-serif" font-size="20" font-weight="bold" fill="#16A34A">W</text>
  <text x="275" y="175" font-family="Arial, sans-serif" font-size="20" font-weight="bold" fill="#16A34A">T</text>
  <text x="320" y="175" font-family="Arial, sans-serif" font-size="20" font-weight="bold" fill="#16A34A">F</text>
  <text x="365" y="175" font-family="Arial, sans-serif" font-size="20" font-weight="bold" fill="#16A34A">S</text>
  <!-- Food icons in calendar cells -->
  <!-- Apple -->
  <circle cx="150" cy="260" r="20" fill="#EF4444"/>
  <rect x="147" y="235" width="6" height="12" rx="2" fill="#84CC16"/>
  <!-- Bread -->
  <ellipse cx="210" cy="260" rx="22" ry="18" fill="#F59E0B"/>
  <!-- Broccoli -->
  <circle cx="270" cy="255" r="12" fill="#22C55E"/>
  <circle cx="258" cy="262" r="10" fill="#22C55E"/>
  <circle cx="282" cy="262" r="10" fill="#22C55E"/>
  <rect x="267" y="265" width="6" height="15" fill="#84CC16"/>
  <!-- Fish -->
  <ellipse cx="330" cy="260" rx="25" ry="15" fill="#60A5FA"/>
  <path d="M355 260 L370 245 L370 275 Z" fill="#60A5FA"/>
  <!-- Carrot -->
  <path d="M380 245 L395 275 L365 275 Z" fill="#F97316"/>
  <rect x="375" y="235" width="6" height="12" fill="#22C55E"/>
  <!-- Chicken leg row 2 -->
  <ellipse cx="150" cy="340" rx="18" ry="14" fill="#FCD34D"/>
  <rect x="145" y="350" width="10" height="18" rx="4" fill="#D4A373"/>
  <!-- Salad -->
  <circle cx="210" cy="340" r="20" fill="#86EFAC"/>
  <circle cx="205" cy="335" r="6" fill="#EF4444"/>
  <circle cx="218" cy="342" r="5" fill="#FBBF24"/>
</svg>